<?xml version="1.0" encoding="UTF-8" standalone="no"?>
<!DOCTYPE svg PUBLIC "-//W3C//DTD SVG 1.1//EN" "http://www.w3.org/Graphics/SVG/1.1/DTD/svg11.dtd">
<svg width="100%" height="100%" viewBox="0 0 317 1319" version="1.1" xmlns="http://www.w3.org/2000/svg" xmlns:xlink="http://www.w3.org/1999/xlink" xml:space="preserve" xmlns:serif="http://www.serif.com/" style="fill-rule:evenodd;clip-rule:evenodd;stroke-linejoin:round;stroke-miterlimit:2;">
    <g id="Ebene-1" serif:id="Ebene 1" transform="matrix(-0.00225871,-4.16667,4.16667,-0.00225871,-15.0031,1379.28)">
        <g transform="matrix(1,0,0,1,212.064,22.7098)">
            <path d="M0,38.008C-2.459,41.594 -5.942,41.696 -10.245,41.696L-27.456,41.696L-27.456,24.792L-9.835,24.792C-5.532,24.997 -1.946,25.407 0.308,29.095C1.024,30.324 1.537,31.862 1.537,33.296C1.537,34.218 1.332,36.062 0,38.008M-27.456,-4.2L-11.372,-4.2C-7.479,-3.79 -4.2,-3.483 -2.151,-0.102C-1.332,1.127 -0.922,2.459 -0.922,3.996C-0.922,4.713 -1.127,6.454 -2.151,8.093C-4.2,11.269 -7.273,11.679 -11.064,12.089L-27.456,12.089L-27.456,-4.2ZM19.772,27.661C16.597,20.592 9.732,18.543 7.273,17.826C6.352,17.519 5.532,17.314 4.61,17.109C8.298,15.777 11.679,14.548 14.548,11.577C18.134,7.684 18.543,2.971 18.543,1.127C18.543,-4.405 15.777,-7.888 14.445,-9.425C8.708,-15.879 0.922,-16.392 -1.946,-16.596C-3.688,-16.802 -5.532,-16.802 -7.273,-16.904L-46.614,-16.904L-46.614,54.912L-5.327,54.912C-2.151,54.81 1.024,54.81 4.098,53.99C5.532,53.683 12.703,51.634 17.007,46.716C18.44,45.18 21.412,41.286 21.412,35.345C21.412,34.013 21.31,30.94 19.772,27.661" style="fill:rgb(35,31,32);fill-rule:nonzero;"/>
        </g>
        <g transform="matrix(1,0,0,1,47.4844,5.7959)">
            <path d="M0,71.875L10.4,71.875L10.4,7.031L42.968,71.875L54.004,71.875L86.572,7.031L86.572,71.875L96.972,71.875L96.972,0L80.42,0L48.486,63.185L16.552,0L0,0L0,71.875Z" style="fill:rgb(35,31,32);fill-rule:nonzero;"/>
        </g>
        <g transform="matrix(1,0,0,1,0,-1.5716)">
            <rect x="14.64" y="7.368" width="10.4" height="71.875" style="fill:rgb(35,31,32);"/>
        </g>
        <g transform="matrix(1,0,0,1,299.042,19.9434)">
            <path d="M0,43.541C-3.893,45.282 -8.094,45.282 -9.63,45.282C-17.519,45.282 -32.271,42.209 -32.271,21.412C-32.169,12.704 -30.12,5.43 -22.538,0.922C-18.851,-1.229 -15.265,-2.049 -10.962,-2.049C-6.352,-2.049 -1.332,-1.126 2.562,1.025C5.635,2.869 7.376,5.02 8.196,6.249C11.27,10.655 12.191,15.777 12.191,21.002C12.191,30.325 8.811,39.75 0,43.541M24.388,-2.877C22.833,-4.849 19.53,-8.299 13.702,-11.257C6.319,-14.708 -3.199,-16.187 -11.942,-16.187C-20.102,-16.187 -26.901,-14.872 -33.895,-11.421C-48.271,-4.191 -52.157,7.475 -52.351,21.442C-52.351,54.798 -24.376,59.728 -9.416,59.728C-6.502,59.728 1.463,59.728 8.846,56.935C25.553,50.854 31.964,35.737 31.964,20.785C31.964,12.405 30.216,4.189 24.388,-2.877" style="fill:rgb(35,31,32);fill-rule:nonzero;"/>
        </g>
    </g>
</svg>
